<?xml version="1.0" encoding="utf-8"?>
<!-- Generator: Adobe Illustrator 25.4.1, SVG Export Plug-In . SVG Version: 6.00 Build 0)  -->
<svg version="1.1" id="Capa_1" xmlns="http://www.w3.org/2000/svg" xmlns:xlink="http://www.w3.org/1999/xlink" x="0px" y="0px"
	 viewBox="0 0 400 400" style="enable-background:new 0 0 400 400;" xml:space="preserve">
<style type="text/css">
	.st0{fill:#FFFFFF;}
	.st1{fill:#25303C;}
	.st2{fill:#24303C;}
	.st3{fill:#25313D;}
	.st4{fill:#FDFDFD;}
	.st5{fill:#FDFDFE;}
</style>
<g>
	<g>
		<path class="st0" d="M-281.2,465.9c0-176.5,0-353,0-529.5c0-1.8,0.4-2.2,2.2-2.2c326.4,0.1,652.8,0.1,979.3,0
			c1.8,0,2.2,0.4,2.2,2.2c0,175.8,0,351.5,0,527.3c0,1.8-0.4,2.2-2.2,2.2C373.1,465.8,45.9,465.9-281.2,465.9z M279,289.4
			c1.9-1.3,3.6-2.4,4.9-4.1c5.6-7.2,5.4-19-0.5-26c-5.3-6.3-12.5-8.7-20.3-8.9c-12.3-0.4-24.7-0.2-37-0.2c-4.5,0-5,0.6-5,5
			c0,23.7,0,47.3,0,71c0,4.5,0.5,5.1,5,5.1c11.2,0,22.4,0,33.6,0c5.6,0,11.1-0.5,16.4-2.6c8.5-3.5,13.4-9.7,14.1-18.9
			C290.8,300.8,287.3,293.9,279,289.4z M205,290.8C205,290.8,205,290.8,205,290.8c-0.1-5.5,0.1-11-0.1-16.5
			c-0.2-7.3-3.3-13.5-9.1-17.8c-12.8-9.6-26.9-10.7-41.2-4.1c-10.3,4.7-15.7,13-15.6,24.7c0.1,9.9,0,19.8,0.1,29.6
			c0.1,7.4,3.1,13.5,8.8,18.2c12.4,10.3,32.8,11,46,1.7c7-4.9,10.9-11.6,11-20.2C205.1,301.2,205,296,205,290.8z M204.7,140.7
			c1.3,0,1.8,0,2.4,0c12.2-0.1,24.5,0.4,36.7-0.3c16.5-0.9,29.1-14.3,29.3-30.8c0.2-16.1-12.2-30.6-27.8-31.4
			c-13.2-0.7-26.4-0.2-39.6-0.3c-0.1,0-0.3,0.1-0.6,0.3c8.6,8.5,13.3,18.8,13.3,31C218.4,121.4,213.6,131.7,204.7,140.7z
			 M136.4,140.5c0.5,0.1,0.7,0.2,0.9,0.2c11.5,0,23,0.1,34.5,0c4.1,0,8.1-0.4,11.9-1.9c14.4-5.6,22.3-19.2,20.2-34.6
			c-1.9-13.8-14.7-25.6-28.6-26c-12.7-0.4-25.5-0.2-38.2-0.2c-0.2,0-0.4,0.2-0.6,0.2C154.9,96,153.3,124.1,136.4,140.5z
			 M204.8,214.9c1.2,0,1.9,0,2.6,0c11.5,0,23,0,34.5,0c18.9,0,33.5-17,30.8-35.7c-2.2-15.7-15.4-27-31.8-27.1c-11.5-0.1-23,0-34.5,0
			c-0.4,0-1-0.3-1.3,0.4c8.5,8.5,13.2,18.8,13.2,31C218.3,195.7,213.6,205.9,204.8,214.9z M136.1,214.9c1.3,0,2.1,0,2.9,0
			c10.9,0,21.7,0,32.6,0c2.2,0,4.4-0.1,6.5-0.4c17.4-2.4,29.7-20.5,25.6-37.6c-3.6-14.9-15.8-24.6-31.1-24.7
			c-11.6-0.1-23.2,0-34.8,0c-0.4,0-1-0.3-1.3,0.3C155.6,171.2,152.5,199.3,136.1,214.9z M123.9,280.1c0-8.6,0-17.2,0-25.8
			c0-5.6-0.4-6-5.9-6c-7.9,0-15.7,0-23.6,0c-3.7,0-7.5-0.1-11.2,0c-3.1,0.1-3.8,0.9-3.8,4c0,3,0,6,0,9c0,3.4,0.7,4.2,4.1,4.2
			c6.2,0,12.5,0.1,18.7,0c2,0,2.4,0.6,2.4,2.5c-0.1,10.9,0,21.9-0.1,32.8c0,1.9-0.1,3.9-0.5,5.8c-0.8,4-3.2,6.6-7.2,7.3
			c-4.3,0.8-8.4,0.8-11.5-3.1c-1.4-1.8-1.8-4-2-6.1c-0.2-2.2-1.3-3.2-3.4-3.2c-4.1,0-8.1,0-12.2,0c-2.4,0-3.5,1.1-3.5,3.4
			c0.2,10,3.9,18.1,13.2,22.9c7.9,4.1,16.4,4.3,24.9,2.5c14.1-3,21.4-12.1,21.5-26.4C124,295.9,123.9,288,123.9,280.1z M323.7,331.3
			C323.7,331.3,323.7,331.3,323.7,331.3c5.9-0.1,11.8-0.1,17.8,0c2.2,0,3.1-1.1,3.2-3.1c0.1-3.4,0.1-6.8,0-10.2c0-2-1-3.2-3.1-3.3
			c-2.2-0.1-4.4-0.1-6.6-0.1c-1.2,0-1.7-0.3-1.7-1.6c0-14.7,0-29.4,0-44c0-1.3,0.5-1.6,1.7-1.6c1.9,0.1,3.9,0,5.8,0
			c2.4,0,3.4-1.2,3.4-3.5c0-3.4,0-6.8,0-10.2c0-2.5-0.9-3.3-3.5-3.3c-11.4,0-22.9,0-34.3,0c-2.2,0-3.5,1-3.5,3.1
			c-0.1,3.6-0.1,7.1,0,10.7c0.1,2,1.2,3.3,3.4,3.2c2-0.1,4.1,0,6.1,0c1.1,0,1.6,0.2,1.6,1.5c0,14.8,0,29.5,0,44.3
			c0,1.2-0.4,1.5-1.5,1.5c-2.1-0.1-4.2,0-6.3,0c-2.4,0-3.5,1.1-3.5,3.6c0.1,2.8,0,5.7,0,8.5c0,4,0.5,4.5,4.7,4.6
			C312.9,331.3,318.3,331.3,323.7,331.3z"/>
		<path class="st1" d="M279,289.4c8.4,4.5,11.8,11.5,11.1,20.4c-0.7,9.2-5.6,15.4-14.1,18.9c-5.3,2.1-10.8,2.6-16.4,2.6
			c-11.2,0-22.4,0-33.6,0c-4.4,0-5-0.6-5-5.1c0-23.7,0-47.3,0-71c0-4.4,0.5-5,5-5c12.3,0,24.7-0.1,37,0.2c7.8,0.2,15,2.7,20.3,8.9
			c5.9,7,6.1,18.8,0.5,26C282.6,286.9,280.9,288,279,289.4z M240.4,290.7c0,7.1,0,14.3,0,21.4c0,1.5,0.4,2,1.9,1.9
			c5-0.1,10.1,0,15.1,0c2.5,0,5,0.2,7.5-0.5c3.8-1,5.8-3.6,5.9-7.6c0-3.8-2-6.2-5.9-7.2c-2.2-0.5-4.5-0.3-6.8-0.4
			c-3.2-0.2-4-0.9-4-4.2c-0.1-2.8-0.1-5.7,0-8.5c0.1-3,0.9-3.7,3.8-3.7c1.8,0,3.6-0.1,5.3-0.5c4.3-0.8,6.4-3.4,6.2-7.6
			c-0.2-3.8-2.2-5.8-6.7-6.2c-6.7-0.6-13.5-0.1-20.2-0.3c-1.7-0.1-2.2,0.5-2.2,2.2C240.5,276.6,240.4,283.7,240.4,290.7z"/>
		<path class="st1" d="M205,290.8c0,5.2,0.1,10.4,0,15.5c-0.2,8.6-4.1,15.3-11,20.2c-13.2,9.4-33.6,8.7-46-1.7
			c-5.6-4.7-8.7-10.8-8.8-18.2c-0.1-9.9,0-19.8-0.1-29.6c-0.1-11.6,5.3-20,15.6-24.7c14.4-6.6,28.4-5.5,41.2,4.1
			c5.8,4.3,8.9,10.5,9.1,17.8C205.1,279.8,205,285.3,205,290.8C205,290.8,205,290.8,205,290.8z M158.2,291c0,4.2,0,8.4,0,12.6
			c0,2.9,0.7,5.6,2.6,7.9c3.5,4.3,10.7,5.8,17,3.7c5.1-1.8,8-5.9,8.1-12c0.1-8,0-16,0-24.1c0-7.8-3.7-12.1-11.4-13.5
			c-9.5-1.6-16.2,4.1-16.3,13.6C158.2,283.2,158.2,287.1,158.2,291z"/>
		<path class="st1" d="M204.7,140.7c9-9,13.7-19.3,13.7-31.5c0-12.2-4.7-22.4-13.3-31c0.3-0.1,0.4-0.3,0.6-0.3
			c13.2,0,26.4-0.4,39.6,0.3c15.6,0.8,28,15.3,27.8,31.4c-0.2,16.5-12.8,29.9-29.3,30.8c-12.2,0.7-24.5,0.1-36.7,0.3
			C206.5,140.7,205.9,140.7,204.7,140.7z"/>
		<path class="st1" d="M136.4,140.5c16.9-16.4,18.4-44.6,0.1-62.3c0.2-0.1,0.4-0.2,0.6-0.2c12.7,0,25.5-0.2,38.2,0.2
			c14,0.4,26.7,12.2,28.6,26c2.2,15.4-5.8,29-20.2,34.6c-3.8,1.5-7.9,1.9-11.9,1.9c-11.5,0.1-23,0-34.5,0
			C137.2,140.7,136.9,140.6,136.4,140.5z"/>
		<path class="st2" d="M204.8,214.9c8.8-8.9,13.6-19.2,13.6-31.3c0-12.2-4.8-22.4-13.2-31c0.3-0.7,0.9-0.4,1.3-0.4
			c11.5,0,23-0.1,34.5,0c16.4,0.1,29.6,11.4,31.8,27.1c2.6,18.7-12,35.6-30.8,35.7c-11.5,0-23,0-34.5,0
			C206.7,214.9,206,214.9,204.8,214.9z"/>
		<path class="st2" d="M136.1,214.9c16.4-15.6,19.5-43.6,0.4-62.4c0.3-0.6,0.9-0.3,1.3-0.3c11.6,0,23.2-0.1,34.8,0
			c15.3,0.1,27.5,9.8,31.1,24.7c4.1,17.1-8.2,35.2-25.6,37.6c-2.2,0.3-4.3,0.4-6.5,0.4c-10.9,0-21.7,0-32.6,0
			C138.2,214.9,137.4,214.9,136.1,214.9z"/>
		<path class="st2" d="M123.9,280.1c0,7.9,0.1,15.9,0,23.8c-0.1,14.3-7.4,23.5-21.5,26.4c-8.5,1.8-16.9,1.6-24.9-2.5
			c-9.3-4.8-13-12.9-13.2-22.9c0-2.4,1.1-3.4,3.5-3.4c4.1,0,8.1,0,12.2,0c2.1,0,3.2,1,3.4,3.2c0.2,2.2,0.6,4.3,2,6.1
			c3.1,3.9,7.2,4,11.5,3.1c3.9-0.8,6.4-3.4,7.2-7.3c0.4-1.9,0.5-3.9,0.5-5.8c0-10.9,0-21.9,0.1-32.8c0-1.9-0.4-2.5-2.4-2.5
			c-6.2,0.1-12.5,0.1-18.7,0c-3.4,0-4.1-0.8-4.1-4.2c0-3,0-6,0-9c0-3.1,0.7-3.9,3.8-4c3.7-0.1,7.5,0,11.2,0c7.9,0,15.7,0,23.6,0
			c5.5,0,5.9,0.4,5.9,6C123.9,262.9,123.9,271.5,123.9,280.1z"/>
		<path class="st3" d="M323.7,331.3c-5.4,0-10.9,0-16.3,0c-4.1,0-4.6-0.5-4.7-4.6c0-2.8,0.1-5.7,0-8.5c-0.1-2.5,1.1-3.6,3.5-3.6
			c2.1,0,4.2-0.1,6.3,0c1.1,0,1.5-0.4,1.5-1.5c0-14.8,0-29.5,0-44.3c0-1.2-0.5-1.5-1.6-1.5c-2,0.1-4.1,0-6.1,0
			c-2.3,0.1-3.4-1.2-3.4-3.2c-0.1-3.6-0.1-7.1,0-10.7c0.1-2.1,1.3-3.1,3.5-3.1c11.4,0,22.9,0,34.3,0c2.6,0,3.4,0.8,3.5,3.3
			c0.1,3.4,0,6.8,0,10.2c0,2.2-1,3.5-3.4,3.5c-2,0-3.9,0.1-5.8,0c-1.2,0-1.7,0.3-1.7,1.6c0,14.7,0,29.4,0,44c0,1.3,0.5,1.6,1.7,1.6
			c2.2,0,4.4,0,6.6,0.1c2.1,0,3.1,1.3,3.1,3.3c0,3.4,0,6.8,0,10.2c0,2-1,3.1-3.2,3.1C335.6,331.2,329.6,331.3,323.7,331.3
			C323.7,331.3,323.7,331.3,323.7,331.3z"/>
		<path class="st4" d="M240.4,290.7c0-7,0.1-14.1,0-21.1c0-1.7,0.5-2.2,2.2-2.2c6.7,0.2,13.5-0.3,20.2,0.3c4.5,0.4,6.5,2.4,6.7,6.2
			c0.2,4.2-1.9,6.7-6.2,7.6c-1.8,0.3-3.5,0.5-5.3,0.5c-3,0-3.7,0.7-3.8,3.7c-0.1,2.8-0.1,5.7,0,8.5c0.1,3.2,0.8,4,4,4.2
			c2.3,0.1,4.5-0.1,6.8,0.4c3.9,1,5.9,3.4,5.9,7.2c0,4-2,6.6-5.9,7.6c-2.5,0.6-5,0.5-7.5,0.5c-5,0-10.1,0-15.1,0
			c-1.5,0-1.9-0.5-1.9-1.9C240.5,305,240.4,297.9,240.4,290.7z"/>
		<path class="st5" d="M158.2,291c0-3.9,0-7.8,0-11.7c0-9.6,6.8-15.3,16.3-13.6c7.7,1.3,11.4,5.6,11.4,13.5c0,8,0.1,16,0,24.1
			c-0.1,6.1-2.9,10.3-8.1,12c-6.4,2.2-13.5,0.6-17-3.7c-1.9-2.3-2.6-5-2.6-7.9C158.2,299.4,158.2,295.2,158.2,291z"/>
	</g>
</g>
</svg>
