<?xml version="1.0" encoding="utf-8"?>
<!-- Generator: Adobe Illustrator 25.4.1, SVG Export Plug-In . SVG Version: 6.00 Build 0)  -->
<svg version="1.1" id="Capa_1" xmlns="http://www.w3.org/2000/svg" xmlns:xlink="http://www.w3.org/1999/xlink" x="0px" y="0px"
	 viewBox="0 0 400 400" style="enable-background:new 0 0 400 400;" xml:space="preserve">
<style type="text/css">
	.st0{fill:#FFFFFF;}
	.st1{fill:#25303C;}
	.st2{fill:#24303C;}
	.st3{fill:#25313D;}
	.st4{fill:#FDFDFD;}
	.st5{fill:#FDFDFE;}
	.st6{fill:#222E3A;}
</style>
<g>
	<g>
		<path class="st0" d="M-281.69,465.86c0-176.51,0-353.01-0.05-529.52c0-1.82,0.41-2.23,2.24-2.23c326.42,0.05,652.84,0.05,979.26,0
			c1.82,0,2.24,0.41,2.24,2.23c-0.05,175.78-0.05,351.55,0,527.33c0,1.82-0.41,2.23-2.24,2.23
			C372.61,465.85,45.46,465.86-281.69,465.86z M278.52,289.37c1.91-1.33,3.59-2.44,4.85-4.07c5.57-7.2,5.39-18.97-0.51-25.96
			c-5.28-6.26-12.46-8.69-20.27-8.92c-12.32-0.35-24.65-0.22-36.97-0.24c-4.5-0.01-5.03,0.6-5.03,5.04c0,23.67,0,47.34,0,71.01
			c0,4.52,0.52,5.07,4.98,5.08c11.19,0.01,22.38,0,33.57,0.01c5.62,0,11.15-0.45,16.44-2.6c8.54-3.47,13.41-9.73,14.1-18.91
			C290.34,300.82,286.87,293.88,278.52,289.37z M204.57,290.82c-0.02,0-0.03,0-0.05,0c0-5.51,0.14-11.02-0.03-16.52
			c-0.23-7.3-3.31-13.45-9.08-17.77c-12.81-9.59-26.85-10.67-41.21-4.12c-10.32,4.71-15.74,13.05-15.59,24.7
			c0.13,9.88,0.01,19.76,0.13,29.65c0.09,7.39,3.14,13.49,8.79,18.18c12.43,10.33,32.81,11.03,46.01,1.66
			c6.96-4.94,10.86-11.61,11.02-20.24C204.65,301.19,204.57,296.01,204.57,290.82z M204.18,140.73c1.28,0,1.83,0.01,2.39,0
			c12.23-0.14,24.48,0.43,36.7-0.26c16.46-0.93,29.05-14.29,29.27-30.77c0.22-16.07-12.23-30.62-27.81-31.4
			c-13.18-0.66-26.41-0.23-39.62-0.27c-0.14,0-0.28,0.13-0.58,0.28c8.63,8.54,13.3,18.8,13.33,30.96
			C217.88,121.45,213.16,131.71,204.18,140.73z M135.95,140.53c0.51,0.11,0.73,0.19,0.95,0.19c11.51,0.01,23.03,0.06,34.54-0.02
			c4.05-0.03,8.09-0.42,11.93-1.91c14.42-5.59,22.34-19.19,20.17-34.62c-1.94-13.79-14.66-25.57-28.65-25.97
			c-12.72-0.36-25.46-0.16-38.19-0.19c-0.21,0-0.41,0.16-0.64,0.25C154.38,95.98,152.87,124.08,135.95,140.53z M204.3,214.87
			c1.2,0,1.9,0,2.6,0c11.51,0,23.03,0.02,34.54-0.01c18.87-0.04,33.48-16.96,30.84-35.66c-2.22-15.71-15.39-26.96-31.8-27.06
			c-11.51-0.07-23.03-0.02-34.54,0c-0.42,0-0.98-0.28-1.32,0.43c8.5,8.54,13.25,18.78,13.25,30.98
			C217.86,195.71,213.11,205.93,204.3,214.87z M135.65,214.87c1.31,0,2.09,0,2.87,0c10.86,0,21.73-0.01,32.59,0
			c2.19,0,4.35-0.12,6.53-0.43c17.41-2.43,29.72-20.49,25.57-37.61c-3.6-14.85-15.81-24.6-31.1-24.69
			c-11.59-0.07-23.19-0.02-34.78,0c-0.43,0-0.98-0.27-1.29,0.32C155.15,171.23,152.07,199.27,135.65,214.87z M123.45,280.07
			c0-8.59,0-17.18,0-25.77c0-5.59-0.39-5.99-5.87-5.99c-7.87,0-15.73,0-23.6,0c-3.73,0-7.46-0.06-11.19,0.03
			c-3.13,0.08-3.83,0.88-3.85,3.98c-0.01,3-0.01,6,0,9c0.01,3.44,0.69,4.2,4.07,4.22c6.24,0.04,12.49,0.1,18.73-0.03
			c1.96-0.04,2.43,0.57,2.42,2.45c-0.08,10.94-0.02,21.88-0.06,32.83c-0.01,1.93-0.11,3.9-0.47,5.8c-0.77,3.95-3.22,6.56-7.16,7.33
			c-4.27,0.84-8.44,0.75-11.49-3.15c-1.42-1.81-1.79-3.99-2.01-6.15c-0.23-2.23-1.33-3.18-3.45-3.18c-4.05,0-8.11-0.04-12.16,0.01
			c-2.37,0.03-3.5,1.09-3.46,3.44c0.16,10.05,3.93,18.1,13.19,22.9c7.94,4.12,16.38,4.32,24.87,2.54
			c14.05-2.95,21.37-12.08,21.49-26.43C123.51,295.95,123.45,288.01,123.45,280.07z M323.26,331.31c0-0.02,0-0.04,0-0.06
			c5.92,0,11.84-0.02,17.76,0.01c2.17,0.01,3.13-1.12,3.17-3.13c0.06-3.4,0.06-6.81,0.02-10.21c-0.03-1.98-0.99-3.22-3.09-3.28
			c-2.19-0.06-4.38-0.13-6.56-0.08c-1.22,0.03-1.72-0.3-1.72-1.62c0.04-14.67,0.04-29.35,0-44.02c0-1.33,0.5-1.65,1.72-1.61
			c1.94,0.07,3.89-0.03,5.84,0c2.37,0.04,3.4-1.22,3.42-3.45c0.02-3.4,0.05-6.81-0.01-10.21c-0.05-2.47-0.92-3.29-3.48-3.3
			c-11.44-0.03-22.87,0.01-34.31-0.03c-2.18-0.01-3.45,0.96-3.51,3.09c-0.11,3.56-0.12,7.13,0,10.7c0.07,2.04,1.17,3.28,3.43,3.21
			c2.03-0.06,4.06,0.05,6.08-0.02c1.11-0.04,1.56,0.24,1.56,1.46c-0.04,14.75-0.03,29.51,0,44.26c0,1.17-0.39,1.55-1.54,1.52
			c-2.11-0.06-4.22,0-6.32,0.03c-2.38,0.03-3.53,1.15-3.45,3.63c0.1,2.83,0,5.67,0.02,8.51c0.03,4.02,0.55,4.55,4.68,4.57
			C312.4,331.33,317.83,331.31,323.26,331.31z"/>
		<path class="st1" d="M278.52,289.37c8.35,4.51,11.82,11.46,11.14,20.43c-0.69,9.18-5.56,15.44-14.1,18.91
			c-5.29,2.15-10.82,2.6-16.44,2.6c-11.19,0-22.38,0.01-33.57-0.01c-4.45-0.01-4.98-0.56-4.98-5.08c0-23.67,0-47.34,0-71.01
			c0-4.44,0.53-5.04,5.03-5.04c12.33,0.02,24.66-0.11,36.97,0.24c7.82,0.22,14.99,2.66,20.27,8.92c5.9,6.99,6.08,18.75,0.51,25.96
			C282.11,286.93,280.43,288.03,278.52,289.37z M239.95,290.73c0,7.13,0.04,14.26-0.03,21.4c-0.01,1.47,0.36,1.95,1.89,1.92
			c5.03-0.1,10.05-0.02,15.08-0.04c2.5-0.01,5.02,0.19,7.49-0.46c3.81-1,5.83-3.57,5.86-7.58c0.03-3.83-1.95-6.21-5.89-7.18
			c-2.24-0.55-4.52-0.28-6.77-0.42c-3.24-0.2-3.96-0.93-4.02-4.16c-0.05-2.84-0.06-5.67,0.02-8.51c0.09-3,0.86-3.71,3.81-3.73
			c1.79-0.01,3.56-0.13,5.31-0.47c4.33-0.83,6.43-3.36,6.24-7.57c-0.17-3.83-2.23-5.81-6.69-6.21c-6.71-0.6-13.45-0.09-20.17-0.31
			c-1.71-0.06-2.19,0.47-2.17,2.16C240,276.63,239.95,283.68,239.95,290.73z"/>
		<path class="st1" d="M204.57,290.82c0,5.18,0.08,10.37-0.02,15.55c-0.16,8.63-4.06,15.29-11.02,20.24
			c-13.2,9.37-33.58,8.67-46.01-1.66c-5.64-4.69-8.7-10.79-8.79-18.18c-0.11-9.88,0-19.77-0.13-29.65
			c-0.15-11.65,5.27-19.99,15.59-24.7c14.36-6.55,28.4-5.46,41.21,4.12c5.76,4.31,8.85,10.47,9.08,17.77
			c0.17,5.5,0.03,11.01,0.03,16.52C204.53,290.82,204.55,290.82,204.57,290.82z M157.76,290.97c0,4.21-0.03,8.43,0.01,12.64
			c0.03,2.9,0.72,5.61,2.61,7.91c3.51,4.29,10.67,5.84,17.02,3.67c5.11-1.75,7.99-5.93,8.05-12.01c0.08-8.02,0.03-16.04,0.02-24.06
			c-0.02-7.82-3.69-12.13-11.43-13.46c-9.46-1.63-16.25,4.06-16.27,13.65C157.75,283.2,157.75,287.08,157.76,290.97z"/>
		<path class="st1" d="M204.18,140.73c8.97-9.03,13.7-19.28,13.67-31.47c-0.02-12.16-4.7-22.42-13.33-30.96
			c0.3-0.15,0.44-0.28,0.58-0.28c13.21,0.04,26.44-0.39,39.62,0.27c15.58,0.78,28.03,15.33,27.81,31.4
			c-0.22,16.48-12.81,29.85-29.27,30.77c-12.22,0.69-24.47,0.13-36.7,0.26C206.02,140.74,205.47,140.73,204.18,140.73z"/>
		<path class="st1" d="M135.95,140.53c16.92-16.45,18.43-44.56,0.12-62.27c0.23-0.09,0.44-0.25,0.64-0.25
			c12.73,0.03,25.47-0.17,38.19,0.19c13.99,0.39,26.71,12.18,28.65,25.97c2.17,15.43-5.75,29.03-20.17,34.62
			c-3.84,1.49-7.88,1.88-11.93,1.91c-11.51,0.08-23.03,0.03-34.54,0.02C136.68,140.73,136.46,140.64,135.95,140.53z"/>
		<path class="st2" d="M204.3,214.87c8.8-8.94,13.56-19.16,13.56-31.32c0-12.2-4.75-22.43-13.25-30.98c0.34-0.71,0.9-0.43,1.32-0.43
			c11.51-0.02,23.03-0.07,34.54,0c16.42,0.1,29.58,11.35,31.8,27.06c2.65,18.7-11.97,35.61-30.84,35.66
			c-11.51,0.03-23.03,0.01-34.54,0.01C206.2,214.87,205.51,214.87,204.3,214.87z"/>
		<path class="st2" d="M135.65,214.87c16.42-15.6,19.5-43.64,0.4-62.41c0.31-0.58,0.86-0.32,1.29-0.32
			c11.59-0.02,23.19-0.07,34.78,0c15.28,0.09,27.5,9.84,31.1,24.69c4.14,17.12-8.17,35.18-25.57,37.61
			c-2.18,0.3-4.34,0.43-6.53,0.43c-10.86-0.01-21.73,0-32.59,0C137.74,214.87,136.96,214.87,135.65,214.87z"/>
		<path class="st2" d="M123.45,280.07c0,7.94,0.06,15.89-0.01,23.83c-0.12,14.34-7.45,23.47-21.49,26.43
			c-8.49,1.79-16.94,1.58-24.87-2.54c-9.26-4.81-13.02-12.86-13.19-22.9c-0.04-2.35,1.09-3.41,3.46-3.44
			c4.05-0.05,8.11-0.01,12.16-0.01c2.12,0,3.23,0.95,3.45,3.18c0.22,2.16,0.59,4.34,2.01,6.15c3.05,3.89,7.23,3.99,11.49,3.15
			c3.94-0.78,6.4-3.38,7.16-7.33c0.37-1.89,0.46-3.86,0.47-5.8c0.04-10.94-0.02-21.88,0.06-32.83c0.01-1.89-0.45-2.5-2.42-2.45
			c-6.24,0.13-12.49,0.08-18.73,0.03c-3.38-0.02-4.06-0.78-4.07-4.22c-0.01-3-0.01-6,0-9c0.01-3.1,0.72-3.9,3.85-3.98
			c3.73-0.09,7.46-0.03,11.19-0.03c7.87,0,15.73,0,23.6,0c5.48,0,5.87,0.39,5.87,5.99C123.45,262.88,123.45,271.47,123.45,280.07z"
			/>
		<path class="st3" d="M323.26,331.31c-5.43,0-10.87,0.02-16.3-0.01c-4.13-0.02-4.65-0.55-4.68-4.57c-0.02-2.84,0.08-5.68-0.02-8.51
			c-0.09-2.48,1.07-3.6,3.45-3.63c2.11-0.03,4.22-0.09,6.32-0.03c1.15,0.03,1.55-0.35,1.54-1.52c-0.03-14.75-0.03-29.51,0-44.26
			c0-1.22-0.45-1.5-1.56-1.46c-2.03,0.07-4.06-0.05-6.08,0.02c-2.26,0.07-3.36-1.18-3.43-3.21c-0.13-3.56-0.11-7.13,0-10.7
			c0.06-2.13,1.33-3.1,3.51-3.09c11.44,0.04,22.87,0,34.31,0.03c2.56,0.01,3.43,0.83,3.48,3.3c0.07,3.4,0.04,6.81,0.01,10.21
			c-0.02,2.23-1.05,3.49-3.42,3.45c-1.95-0.03-3.9,0.07-5.84,0c-1.22-0.05-1.72,0.27-1.72,1.61c0.04,14.67,0.04,29.35,0,44.02
			c0,1.32,0.49,1.65,1.72,1.62c2.19-0.05,4.38,0.02,6.56,0.08c2.11,0.05,3.07,1.3,3.09,3.28c0.05,3.4,0.04,6.81-0.02,10.21
			c-0.04,2-1,3.14-3.17,3.13c-5.92-0.04-11.84-0.01-17.76-0.01C323.26,331.27,323.26,331.29,323.26,331.31z"/>
		<path class="st4" d="M239.95,290.73c0-7.05,0.05-14.1-0.04-21.15c-0.02-1.7,0.46-2.22,2.17-2.16c6.72,0.22,13.46-0.29,20.17,0.31
			c4.46,0.4,6.52,2.37,6.69,6.21c0.19,4.2-1.91,6.74-6.24,7.57c-1.76,0.34-3.52,0.46-5.31,0.47c-2.95,0.02-3.72,0.73-3.81,3.73
			c-0.08,2.83-0.07,5.67-0.02,8.51c0.05,3.23,0.78,3.95,4.02,4.16c2.26,0.14,4.53-0.13,6.77,0.42c3.94,0.97,5.92,3.35,5.89,7.18
			c-0.03,4-2.05,6.57-5.86,7.58c-2.48,0.65-4.99,0.45-7.49,0.46c-5.03,0.03-10.06-0.05-15.08,0.04c-1.53,0.03-1.9-0.45-1.89-1.92
			C239.99,304.99,239.95,297.86,239.95,290.73z"/>
		<path class="st5" d="M157.76,290.97c0-3.89-0.01-7.78,0-11.67c0.02-9.58,6.81-15.27,16.27-13.65c7.74,1.33,11.41,5.63,11.43,13.46
			c0.02,8.02,0.06,16.04-0.02,24.06c-0.06,6.09-2.94,10.27-8.05,12.01c-6.35,2.17-13.5,0.62-17.02-3.67
			c-1.89-2.31-2.58-5.01-2.61-7.91C157.73,299.4,157.76,295.19,157.76,290.97z"/>
	</g>
</g>
<g>
	<path class="st6" d="M524.59,136.93H505.3c6.06,2.88,10.26,9.05,10.26,16.2s-4.2,13.32-10.26,16.2h19.29
		c8.95,0,16.2-7.25,16.2-16.2S533.54,136.93,524.59,136.93z"/>
	<path class="st6" d="M489.1,136.93h-19.29c6.06,2.88,10.26,9.05,10.26,16.2s-4.2,13.32-10.26,16.2h19.29
		c8.95,0,16.2-7.25,16.2-16.2S498.05,136.93,489.1,136.93z"/>
	<path class="st6" d="M489.1,97.92h-19.29c6.06,2.88,10.26,9.05,10.26,16.2s-4.2,13.32-10.26,16.2h19.29c8.95,0,16.2-7.25,16.2-16.2
		S498.05,97.92,489.1,97.92z"/>
	<path class="st6" d="M524.59,97.92H505.3c6.06,2.88,10.26,9.05,10.26,16.2s-4.2,13.32-10.26,16.2h19.29c8.95,0,16.2-7.25,16.2-16.2
		S533.54,97.92,524.59,97.92z"/>
</g>
</svg>
